<?xml version="1.0" standalone="no"?>
<!DOCTYPE svg PUBLIC "-//W3C//DTD SVG 20010904//EN"
 "http://www.w3.org/TR/2001/REC-SVG-20010904/DTD/svg10.dtd">
<svg version="1.0" xmlns="http://www.w3.org/2000/svg"
 width="512.000000pt" height="512.000000pt" viewBox="0 0 512.000000 512.000000"
 preserveAspectRatio="xMidYMid meet">
<metadata>
Created by potrace 1.14, written by Peter Selinger 2001-2017
</metadata>
<g transform="translate(0.000000,512.000000) scale(0.100000,-0.100000)"
fill="#000000" stroke="none">
<path d="M563 4220 c3 -320 4 -338 26 -399 30 -87 98 -189 158 -239 l49 -42
-61 -63 c-118 -124 -164 -244 -172 -455 l-6 -142 235 0 c255 1 322 10 422 54
32 14 60 26 62 26 2 0 5 -154 7 -342 2 -189 6 -356 10 -373 14 -57 68 -155
114 -205 26 -28 78 -70 116 -92 38 -23 71 -46 73 -52 2 -6 5 -222 7 -481 2
-258 6 -480 10 -493 21 -79 86 -183 152 -244 38 -36 156 -95 215 -108 28 -6
258 -9 605 -7 l560 2 61 26 c160 67 258 176 299 334 11 42 14 152 15 511 0
251 3 460 5 464 3 5 31 23 62 40 73 41 164 132 196 196 51 101 56 143 57 493
0 179 2 327 4 329 2 2 17 -3 33 -11 26 -14 103 -42 148 -54 11 -3 136 -8 278
-10 l258 -5 -2 119 c-1 65 -8 146 -15 181 -20 97 -83 217 -154 295 l-62 67 33
27 c84 71 148 171 178 281 18 65 20 105 21 389 0 174 -1 315 -3 312 -3 -2 -51
-96 -108 -209 -112 -221 -147 -267 -235 -311 l-49 -24 -409 -3 -409 -3 -31 30
c-17 16 -44 35 -59 40 -19 7 -250 11 -698 11 -724 0 -708 1 -758 -54 l-25 -26
-393 0 c-445 1 -459 3 -546 73 -47 39 -62 63 -165 262 l-112 220 3 -335z"/>
</g>
</svg>
